<svg id="Layer_1" data-name="Layer 1" xmlns="http://www.w3.org/2000/svg" viewBox="0 0 47.32 47.41"><defs><style>.cls-1{fill:#66371f;stroke:#66371f;stroke-width:0.69px;}.cls-1,.cls-2{stroke-miterlimit:10;}.cls-2{fill:#ffdf80;stroke:#3a1606;stroke-width:0.39px;}.cls-3{fill:#0a99ae;}.cls-4{fill:#fff;}</style></defs><title>logo-icon</title><ellipse class="cls-1" cx="23.66" cy="23.7" rx="23.31" ry="23.36"/><path class="cls-2" d="M41.33,120.28q-0.33-.34.08-2.32a5.76,5.76,0,0,1,.79-2.33,1.39,1.39,0,0,1,.95.22,1.16,1.16,0,0,0,.82.06,2,2,0,0,0,.79-0.49,2.11,2.11,0,0,0,.33-0.41,1.49,1.49,0,0,0,.2-0.47,1.11,1.11,0,0,0,0-.49,1,1,0,0,0-.25-0.46,1.42,1.42,0,0,0-.29-0.22,1.26,1.26,0,0,0-.33-0.14,0.92,0.92,0,0,0-.33,0,0.48,0.48,0,0,0-.28.13l-4,3.83a0.44,0.44,0,0,0-.06.56,0.4,0.4,0,0,1,0,.49,0.28,0.28,0,0,1-.44,0l-1.95-2a0.27,0.27,0,0,1,0-.43,0.42,0.42,0,0,1,.49,0,0.47,0.47,0,0,0,.59,0l4-3.83a0.38,0.38,0,0,0,0-.47,0.38,0.38,0,0,1,0-.49,0.35,0.35,0,0,1,.36,0,3,3,0,0,1,.58.27q0.33,0.19.69,0.45l0.67,0.51,0.55,0.46L45.64,113a4.81,4.81,0,0,1,.68.88,3.18,3.18,0,0,1,.4,1,2.2,2.2,0,0,1,0,1,1.91,1.91,0,0,1-.56.91,1.66,1.66,0,0,1-.6.39,1.94,1.94,0,0,1-.63.1,3.26,3.26,0,0,1-.68-0.08L43.46,117a4.19,4.19,0,0,0-.38.9,7.55,7.55,0,0,0-.24,1.13,5.11,5.11,0,0,0,0,1.16q0.06,0.52.14,0.94a0.36,0.36,0,0,1,0,.26,0.22,0.22,0,0,1-.16.09,0.48,0.48,0,0,1-.21,0,0.46,0.46,0,0,1-.18-0.11Z" transform="translate(-32.65 -79.22)"/><path class="cls-2" d="M50.53,124.79a0.28,0.28,0,0,1-.26.11,0.9,0.9,0,0,1-.26,0L45.21,123a0.26,0.26,0,0,1-.17-0.39,0.42,0.42,0,0,1,.46-0.15,0.47,0.47,0,0,0,.52-0.31l2.19-5.58A0.45,0.45,0,0,0,48,116a0.41,0.41,0,0,1-.22-0.44,0.27,0.27,0,0,1,.39-0.18l4.55,1.74a0.54,0.54,0,0,1,.35.32,2,2,0,0,1,.09.53,1.92,1.92,0,0,1,0,.35,1.08,1.08,0,0,1-.06.29,0.22,0.22,0,0,0-.09.07l-0.09.1a0.18,0.18,0,0,1-.1,0,0.13,0.13,0,0,1-.11-0.08l-0.17-.24-0.19-.25-0.17-.23-0.11-.15a1.42,1.42,0,0,0-.44-0.32,7.63,7.63,0,0,0-.84-0.37,1.14,1.14,0,0,0-.6-0.11,0.37,0.37,0,0,0-.27.24l-0.32.82-0.16.39-0.05.14,0,0a0.31,0.31,0,0,0,0,.19,0.27,0.27,0,0,0,.08.13l0.14,0.09,0.14,0.06,0.17,0.06,0.22,0.06,0.22,0.07,0.17,0.06a1.1,1.1,0,0,1,.45.29,0.49,0.49,0,0,1-.29.75,1.3,1.3,0,0,1-.58-0.11l-0.35-.16-0.36-.16a0.81,0.81,0,0,0-.33-0.05,0.29,0.29,0,0,0-.26.22l-0.94,2.4a0.46,0.46,0,0,0,0,.35,0.66,0.66,0,0,0,.31.21l0.38,0.16,0.52,0.2,0.48,0.18,0.29,0.1a0.28,0.28,0,0,0,.29,0,4.21,4.21,0,0,0,.49-0.15l0.48-.18a0.55,0.55,0,0,1,.28-0.07,0.36,0.36,0,0,1,.18.14,0.22,0.22,0,0,1,0,.21,0.85,0.85,0,0,1-.16.22l-0.29.29-0.31.27A1.14,1.14,0,0,1,50.53,124.79Z" transform="translate(-32.65 -79.22)"/><path class="cls-2" d="M57.19,125.57a3.31,3.31,0,0,1-2.78-1.15,4.5,4.5,0,0,1-1-2.83,4.59,4.59,0,0,1,.79-2.83,3.11,3.11,0,0,1,2.62-1.34l0.33,0,0.54,0.07a3.07,3.07,0,0,0,.5,0l0.08-.07,0.16-.09,0.16-.08,0.09,0a0.94,0.94,0,0,1,.63.75,3.29,3.29,0,0,1,.29,1,0.24,0.24,0,0,1-.11.23,0.64,0.64,0,0,1-.32.08l-0.51-.43a5,5,0,0,0-.46-0.34,2.56,2.56,0,0,0-.58-0.26,2,2,0,0,0-.65-0.08,1.5,1.5,0,0,0-1.35,1.15,5.18,5.18,0,0,0-.27,2,5.36,5.36,0,0,0,.41,2.18,1.74,1.74,0,0,0,1.68,1.07,1.9,1.9,0,0,0,.56-0.1,2.57,2.57,0,0,0,.55-0.27l0.75-.48a1.3,1.3,0,0,1,.34-0.18,0.27,0.27,0,0,1,.19,0,0.4,0.4,0,0,1,.12.12,0.41,0.41,0,0,1,.06.13,0.47,0.47,0,0,1,0,.16,0.83,0.83,0,0,1-.09.25,1.15,1.15,0,0,1-.21.28,1.82,1.82,0,0,1-.33.25,5.29,5.29,0,0,1-.48.26A4.1,4.1,0,0,1,57.19,125.57Z" transform="translate(-32.65 -79.22)"/><path class="cls-2" d="M62.37,124.79a0.27,0.27,0,0,1-.39-0.2,0.41,0.41,0,0,1,.24-0.42,0.45,0.45,0,0,0,.2-0.54l-2-5.65a0.46,0.46,0,0,0-.5-0.3,0.42,0.42,0,0,1-.46-0.19,0.26,0.26,0,0,1,.18-0.39l2.64-.91a0.27,0.27,0,0,1,.38.19,0.43,0.43,0,0,1-.25.43,0.45,0.45,0,0,0-.2.54l2,5.65a0.46,0.46,0,0,0,.5.3,0.44,0.44,0,0,1,.47.18,0.27,0.27,0,0,1-.18.4Z" transform="translate(-32.65 -79.22)"/><path class="cls-2" d="M68.76,118.54l-0.24.16a1.36,1.36,0,0,1-.29.13,0.87,0.87,0,0,1-.29,0,0.29,0.29,0,0,1-.23-0.12,0.35,0.35,0,0,1-.05-0.35A1,1,0,0,1,68,118a1,1,0,0,0,.42-1,1.68,1.68,0,0,0-.19-0.54,3.19,3.19,0,0,0-.35-0.51,3.43,3.43,0,0,0-.52-0.51,2.24,2.24,0,0,0-.6-0.34,1.52,1.52,0,0,0-.61-0.1,1,1,0,0,0-.57.21,0.94,0.94,0,0,0-.35.51,0.62,0.62,0,0,0,.11.57l3.34,4.32a0.46,0.46,0,0,0,.57.13,0.42,0.42,0,0,1,.5,0,0.26,0.26,0,0,1,0,.42l-2.21,1.66a0.27,0.27,0,0,1-.42-0.07,0.4,0.4,0,0,1,.1-0.47,0.45,0.45,0,0,0,0-.58l-3.34-4.32a0.39,0.39,0,0,0-.47,0,0.4,0.4,0,0,1-.49-0.07,0.36,0.36,0,0,1,0-.37,2.51,2.51,0,0,1,.3-0.51,6.18,6.18,0,0,1,.49-0.58q0.28-.3.56-0.56l0.5-.45,0.32-.27a4.47,4.47,0,0,1,1-.57,3.6,3.6,0,0,1,1.15-.26,2.71,2.71,0,0,1,1.12.18,2.19,2.19,0,0,1,1,.74,3.38,3.38,0,0,1,.59,1.11,2.27,2.27,0,0,1,.07,1,2.33,2.33,0,0,1-.41.95A3.55,3.55,0,0,1,68.76,118.54Z" transform="translate(-32.65 -79.22)"/><path class="cls-2" d="M77.1,111.84a0.27,0.27,0,0,1,.07.27,0.88,0.88,0,0,1-.08.25l-2.54,4.4a0.27,0.27,0,0,1-.42.1A0.4,0.4,0,0,1,74,116.4a0.46,0.46,0,0,0-.23-0.55l-5.27-3a0.46,0.46,0,0,0-.58.1,0.42,0.42,0,0,1-.47.15,0.26,0.26,0,0,1-.12-0.41l2.41-4.17a0.54,0.54,0,0,1,.37-0.29,2.07,2.07,0,0,1,.54,0,2,2,0,0,1,.35.05,1.1,1.1,0,0,1,.28.1,0.22,0.22,0,0,0,.06.1l0.09,0.1a0.18,0.18,0,0,1,0,.11,0.13,0.13,0,0,1-.1.1l-0.26.13-0.28.15-0.25.13-0.17.08a1.42,1.42,0,0,0-.39.38,7.46,7.46,0,0,0-.5.77,1.11,1.11,0,0,0-.2.57,0.37,0.37,0,0,0,.2.3l0.78,0.44L70.72,112,70.85,112l0,0a0.32,0.32,0,0,0,.18,0,0.27,0.27,0,0,0,.14-0.06,0.54,0.54,0,0,0,.11-0.12l0.08-.13,0.08-.16,0.1-.2,0.1-.21,0.09-.16a1.1,1.1,0,0,1,.36-0.4,0.43,0.43,0,0,1,.46,0,0.41,0.41,0,0,1,.25.38,1.25,1.25,0,0,1-.19.55,3.42,3.42,0,0,1-.21.32,3.66,3.66,0,0,0-.21.33,0.78,0.78,0,0,0-.1.32,0.29,0.29,0,0,0,.18.28l2.27,1.27a0.48,0.48,0,0,0,.34.1,0.66,0.66,0,0,0,.26-0.28c0.05-.08.13-0.19,0.22-0.35l0.27-.47,0.25-.44,0.15-.26a0.27,0.27,0,0,0,.08-0.28,4,4,0,0,0-.08-0.5q-0.06-.27-0.11-0.5a0.52,0.52,0,0,1,0-.28,0.36,0.36,0,0,1,.17-0.16,0.23,0.23,0,0,1,.21,0,0.84,0.84,0,0,1,.2.19l0.25,0.33L77,111.59A1.12,1.12,0,0,1,77.1,111.84Z" transform="translate(-32.65 -79.22)"/><ellipse class="cls-3" cx="23.66" cy="23.52" rx="14.44" ry="14.47"/><path class="cls-2" d="M48.69,81.58l1.43-.66,0,6.09,0.95,2.05-1.34.62-0.95-2.05-4.6-4L45.63,83l3.18,2.87Z" transform="translate(-32.65 -79.22)"/><path class="cls-2" d="M58.9,85.68a2.23,2.23,0,0,1-.59,1.71,4.08,4.08,0,0,1-4.6.14,2.22,2.22,0,0,1-.7-1.67l-0.1-3.24a2.22,2.22,0,0,1,.6-1.71,4.08,4.08,0,0,1,4.6-.14,2.23,2.23,0,0,1,.7,1.67Zm-4.42.05q0,1.18,1.51,1.14t1.44-1.23l-0.09-3.07q0-1.18-1.51-1.14t-1.44,1.23Z" transform="translate(-32.65 -79.22)"/><path class="cls-2" d="M68.14,83.33L65.88,88.4a2.2,2.2,0,0,1-1.24,1.25,3.88,3.88,0,0,1-4.13-1.84,2.22,2.22,0,0,1,.11-1.76L62.88,81l1.35,0.6-2.2,5a1.42,1.42,0,0,0,2.57,1.15l2.2-5Z" transform="translate(-32.65 -79.22)"/><path class="cls-4" d="M55.55,99.28h0a1.71,1.71,0,0,1-1.07,1.51,0.92,0.92,0,0,0-.68.29c0.11,1.11,4,1.13,4.11,0,0-.21-0.51-0.23-0.68-0.28a1.42,1.42,0,0,1-.9-1.56h0l0.07-.84,0-.43a2,2,0,0,1,.45-1.08c0.89-1.09,1.68-3.85,2-7.1H54.6c-0.26,3.18.06,5.9,0.74,7a2.2,2.2,0,0,1,.3,1.3l0,0.28ZM54.76,91.8A2.76,2.76,0,0,0,58.08,91c0,0.27,0,.55,0,0.84-0.18,2.61-1,4.73-1.86,4.74S54.57,94.42,54.76,91.8ZM55.55,93a0.21,0.21,0,0,1-.2.2,0.17,0.17,0,0,1-.17-0.2,0.21,0.21,0,0,1,.2-0.2A0.17,0.17,0,0,1,55.55,93Zm0.09,1.1a0.11,0.11,0,0,1-.1.1,0.09,0.09,0,0,1-.08-0.1,0.11,0.11,0,0,1,.1-0.1A0.09,0.09,0,0,1,55.64,94.08Zm1-.84a0.19,0.19,0,0,1-.18.18,0.16,0.16,0,0,1-.15-0.18,0.19,0.19,0,0,1,.18-0.18A0.16,0.16,0,0,1,56.61,93.24Zm1-.32a0.15,0.15,0,0,1-.14.14,0.12,0.12,0,0,1-.12-0.14,0.15,0.15,0,0,1,.14-0.14A0.12,0.12,0,0,1,57.57,92.92Zm-0.83-.37a0.13,0.13,0,0,1-.12.12,0.11,0.11,0,0,1-.1-0.12,0.13,0.13,0,0,1,.12-0.12A0.11,0.11,0,0,1,56.73,92.55Zm-0.28,2.08a0.16,0.16,0,0,1-.15.15,0.13,0.13,0,0,1-.12-0.15,0.16,0.16,0,0,1,.15-0.15A0.13,0.13,0,0,1,56.45,94.62ZM57.22,94a0.19,0.19,0,0,1-.18.18A0.15,0.15,0,0,1,56.9,94a0.19,0.19,0,0,1,.18-0.18A0.15,0.15,0,0,1,57.22,94Z" transform="translate(-32.65 -79.22)"/><path class="cls-4" d="M49.4,104.7c0.59,0.56,2.07.18,2.51-.17l-2.12-2C49.35,102.87,48.81,104.15,49.4,104.7Zm2.8-3.37-0.09-.09a0.56,0.56,0,0,0-.72,0l-1.63,1.33L50.2,103Zm1.31,1.89a0.42,0.42,0,0,0,0-.64l-0.09-.09-2,1.63,0.45,0.43Zm-2.47.54,1.79-1.47a0.23,0.23,0,0,0,0-.36l-0.07-.07a0.28,0.28,0,0,0-.36,0l-1.82,1.48Zm-6.19,5.19,5.27-4.31-0.58-.56-5.27,4.31a0.23,0.23,0,0,0,0,.35l0.19,0.18A0.31,0.31,0,0,0,44.84,108.95Z" transform="translate(-32.65 -79.22)"/><path class="cls-4" d="M59.15,101.15a1.94,1.94,0,0,0-.15,1.36c0.59,0.9,3.84,1.89,4.4,2.06l5.27,3,0.21-.84-5.33-3.07h0Z" transform="translate(-32.65 -79.22)"/></svg>