<svg id="Layer_1" data-name="Layer 1" xmlns="http://www.w3.org/2000/svg" viewBox="0 0 161.66 124.38"><defs><style>.cls-1,.cls-5,.cls-7,.cls-8{fill:#66371f;}.cls-1,.cls-7,.cls-8{stroke:#66371f;}.cls-1,.cls-2,.cls-7,.cls-8,.cls-9{stroke-miterlimit:10;}.cls-1{stroke-width:0.89px;}.cls-2,.cls-9{fill:#ffdf80;stroke:#3a1606;}.cls-2{stroke-width:0.5px;}.cls-3{fill:#0a99ae;}.cls-4{fill:#fff;}.cls-5{font-size:12px;font-family:Noto Sans CJK JP;font-weight:700;}.cls-6{letter-spacing:-1px;}.cls-7{stroke-width:2px;}.cls-8{stroke-width:0.69px;}.cls-9{stroke-width:0.39px;}</style></defs><title>logo</title><circle class="cls-1" cx="30.34" cy="30.34" r="29.9"/><path class="cls-2" d="M12.72,54.8q-0.43-.43.1-3a7.37,7.37,0,0,1,1-3,1.79,1.79,0,0,1,1.22.28,1.5,1.5,0,0,0,1,.08,2.51,2.51,0,0,0,1-.62,2.7,2.7,0,0,0,.42-0.52,1.9,1.9,0,0,0,.25-0.61,1.42,1.42,0,0,0,0-.63,1.31,1.31,0,0,0-.33-0.59A1.82,1.82,0,0,0,17.1,46a1.62,1.62,0,0,0-.42-0.18,1.18,1.18,0,0,0-.43,0,0.61,0.61,0,0,0-.36.17l-5.14,4.9a0.56,0.56,0,0,0-.08.72,0.52,0.52,0,0,1,0,.63,0.36,0.36,0,0,1-.56,0l-2.5-2.54a0.34,0.34,0,0,1,0-.55,0.54,0.54,0,0,1,.63.05A0.6,0.6,0,0,0,9,49.08l5.13-4.9a0.49,0.49,0,0,0,0-.61,0.49,0.49,0,0,1,0-.63,0.46,0.46,0,0,1,.46,0,3.81,3.81,0,0,1,.74.34q0.42,0.24.88,0.57t0.87,0.65l0.7,0.58,0.41,0.37a6.16,6.16,0,0,1,.87,1.12,4.06,4.06,0,0,1,.51,1.26,2.81,2.81,0,0,1,0,1.28,2.45,2.45,0,0,1-.72,1.17,2.14,2.14,0,0,1-.78.5,2.5,2.5,0,0,1-.81.13,4.19,4.19,0,0,1-.87-0.1l-1-.19A5.36,5.36,0,0,0,15,51.77a9.65,9.65,0,0,0-.31,1.45,6.53,6.53,0,0,0,0,1.48q0.08,0.67.18,1.2a0.46,0.46,0,0,1,0,.33,0.28,0.28,0,0,1-.2.12,0.62,0.62,0,0,1-.27,0,0.59,0.59,0,0,1-.23-0.14Z" transform="translate(-1.59 -2.24)"/><path class="cls-2" d="M24.51,60.57a0.35,0.35,0,0,1-.33.14,1.16,1.16,0,0,1-.34-0.06l-6.14-2.34a0.34,0.34,0,0,1-.21-0.5,0.54,0.54,0,0,1,.59-0.2,0.6,0.6,0,0,0,.66-0.39l2.81-7.14a0.57,0.57,0,0,0-.23-0.7A0.52,0.52,0,0,1,21,48.82a0.35,0.35,0,0,1,.5-0.23l5.83,2.22a0.69,0.69,0,0,1,.45.4,2.54,2.54,0,0,1,.11.68,2.45,2.45,0,0,1,0,.45,1.38,1.38,0,0,1-.08.37,0.28,0.28,0,0,0-.11.09l-0.11.13a0.23,0.23,0,0,1-.13.06,0.17,0.17,0,0,1-.14-0.1l-0.22-.3-0.24-.32L26.66,52l-0.14-.2A1.83,1.83,0,0,0,26,51.38a9.79,9.79,0,0,0-1.08-.48,1.47,1.47,0,0,0-.76-0.14,0.47,0.47,0,0,0-.35.31l-0.41,1.05-0.2.5-0.07.18,0,0a0.39,0.39,0,0,0,0,.24,0.35,0.35,0,0,0,.11.17,0.73,0.73,0,0,0,.18.11l0.18,0.08,0.22,0.08L24,53.62l0.29,0.08,0.22,0.08a1.41,1.41,0,0,1,.58.38,0.63,0.63,0,0,1-.38,1A1.66,1.66,0,0,1,24,55a4.46,4.46,0,0,1-.44-0.2l-0.46-.21a1,1,0,0,0-.43-0.06,0.37,0.37,0,0,0-.33.28l-1.21,3.07a0.59,0.59,0,0,0-.06.44,0.85,0.85,0,0,0,.4.27l0.49,0.2L22.59,59l0.62,0.23,0.37,0.13a0.36,0.36,0,0,0,.37,0,5.41,5.41,0,0,0,.62-0.19L25.18,59a0.71,0.71,0,0,1,.35-0.08,0.47,0.47,0,0,1,.23.18,0.28,0.28,0,0,1,0,.27,1.09,1.09,0,0,1-.21.28c-0.11.12-.24,0.25-0.38,0.37l-0.4.35A1.46,1.46,0,0,1,24.51,60.57Z" transform="translate(-1.59 -2.24)"/><path class="cls-2" d="M33.06,61.57a4.24,4.24,0,0,1-3.57-1.47,5.75,5.75,0,0,1-1.27-3.62,5.87,5.87,0,0,1,1-3.62,4,4,0,0,1,3.37-1.71l0.42,0,0.7,0.1a3.94,3.94,0,0,0,.64.06,0.3,0.3,0,0,1,.1-0.08l0.2-.12,0.2-.1L35,51a1.21,1.21,0,0,1,.8,1,4.21,4.21,0,0,1,.37,1.3,0.31,0.31,0,0,1-.15.29,0.83,0.83,0,0,1-.41.1l-0.66-.55a6.35,6.35,0,0,0-.59-0.43,3.29,3.29,0,0,0-.74-0.33,2.59,2.59,0,0,0-.83-0.11A1.92,1.92,0,0,0,31,53.68a6.62,6.62,0,0,0-.35,2.54A6.85,6.85,0,0,0,31.23,59a2.23,2.23,0,0,0,2.16,1.38,2.44,2.44,0,0,0,.72-0.13,3.3,3.3,0,0,0,.71-0.34l1-.62a1.67,1.67,0,0,1,.44-0.23,0.34,0.34,0,0,1,.24,0,0.51,0.51,0,0,1,.16.15,0.53,0.53,0,0,1,.07.17,0.6,0.6,0,0,1,0,.21,1.06,1.06,0,0,1-.12.32,1.47,1.47,0,0,1-.27.35,2.33,2.33,0,0,1-.42.32,6.79,6.79,0,0,1-.62.33A5.26,5.26,0,0,1,33.06,61.57Z" transform="translate(-1.59 -2.24)"/><path class="cls-2" d="M39.7,60.58a0.35,0.35,0,0,1-.5-0.26,0.52,0.52,0,0,1,.31-0.54,0.57,0.57,0,0,0,.26-0.69L37.2,51.86a0.59,0.59,0,0,0-.64-0.39A0.54,0.54,0,0,1,36,51.23a0.34,0.34,0,0,1,.23-0.49l3.39-1.16a0.35,0.35,0,0,1,.49.24,0.55,0.55,0,0,1-.32.56,0.57,0.57,0,0,0-.26.69l2.56,7.23a0.59,0.59,0,0,0,.64.39,0.57,0.57,0,0,1,.6.22,0.34,0.34,0,0,1-.23.51Z" transform="translate(-1.59 -2.24)"/><path class="cls-2" d="M47.89,52.58l-0.31.2a1.75,1.75,0,0,1-.38.17,1.12,1.12,0,0,1-.37.05,0.37,0.37,0,0,1-.29-0.15,0.45,0.45,0,0,1-.06-0.44,1.34,1.34,0,0,1,.5-0.56,1.24,1.24,0,0,0,.54-1.26,2.15,2.15,0,0,0-.24-0.69,4.08,4.08,0,0,0-.45-0.66,4.39,4.39,0,0,0-.67-0.65,2.88,2.88,0,0,0-.76-0.44A2,2,0,0,0,44.61,48a1.29,1.29,0,0,0-.73.27,1.2,1.2,0,0,0-.45.66,0.79,0.79,0,0,0,.14.73l4.28,5.53a0.59,0.59,0,0,0,.73.17,0.54,0.54,0,0,1,.64.05,0.34,0.34,0,0,1-.06.54l-2.83,2.12A0.35,0.35,0,0,1,45.77,58a0.52,0.52,0,0,1,.13-0.61,0.58,0.58,0,0,0,0-.75l-4.28-5.53a0.5,0.5,0,0,0-.6-0.06A0.51,0.51,0,0,1,40.4,51a0.45,0.45,0,0,1,0-.47,3.21,3.21,0,0,1,.39-0.66,7.91,7.91,0,0,1,.63-0.74q0.36-.39.71-0.72l0.64-.58,0.41-.34a5.73,5.73,0,0,1,1.32-.73,4.62,4.62,0,0,1,1.47-.34,3.48,3.48,0,0,1,1.44.22,2.81,2.81,0,0,1,1.23.95A4.33,4.33,0,0,1,49.38,49a2.9,2.9,0,0,1,.09,1.34,3,3,0,0,1-.52,1.21A4.55,4.55,0,0,1,47.89,52.58Z" transform="translate(-1.59 -2.24)"/><path class="cls-2" d="M58.58,44a0.34,0.34,0,0,1,.09.35,1.13,1.13,0,0,1-.11.32l-3.26,5.63a0.35,0.35,0,0,1-.53.13,0.52,0.52,0,0,1-.11-0.6,0.59,0.59,0,0,0-.3-0.7L47.6,45.34a0.59,0.59,0,0,0-.74.12,0.54,0.54,0,0,1-.61.2,0.34,0.34,0,0,1-.16-0.52l3.09-5.34a0.69,0.69,0,0,1,.47-0.38,2.65,2.65,0,0,1,.7,0,2.53,2.53,0,0,1,.46.07,1.41,1.41,0,0,1,.36.13,0.28,0.28,0,0,0,.08.12l0.11,0.13a0.22,0.22,0,0,1,0,.14,0.17,0.17,0,0,1-.12.12L51,40.29l-0.36.19-0.32.16-0.22.1a1.82,1.82,0,0,0-.5.49,9.55,9.55,0,0,0-.64,1,1.41,1.41,0,0,0-.25.72,0.47,0.47,0,0,0,.26.39l1,0.56,0.48,0.27,0.17,0.09,0,0a0.4,0.4,0,0,0,.24.06A0.34,0.34,0,0,0,51,44.26a0.69,0.69,0,0,0,.14-0.15l0.11-.17,0.11-.2,0.12-.26,0.13-.27L51.75,43a1.41,1.41,0,0,1,.46-0.51,0.55,0.55,0,0,1,.59,0,0.52,0.52,0,0,1,.32.48,1.6,1.6,0,0,1-.25.7,4.37,4.37,0,0,1-.27.4,4.69,4.69,0,0,0-.28.42,1,1,0,0,0-.13.4,0.37,0.37,0,0,0,.23.36l2.91,1.63a0.62,0.62,0,0,0,.44.12,0.85,0.85,0,0,0,.33-0.35c0.07-.1.16-0.25,0.28-0.45l0.35-.61,0.32-.57,0.19-.34a0.35,0.35,0,0,0,.1-0.36,5.09,5.09,0,0,0-.1-0.63q-0.07-.34-0.14-0.63a0.67,0.67,0,0,1,0-.36,0.47,0.47,0,0,1,.21-0.2,0.29,0.29,0,0,1,.28,0,1.07,1.07,0,0,1,.25.25Q58,43,58.13,43.24l0.29,0.44A1.43,1.43,0,0,1,58.58,44Z" transform="translate(-1.59 -2.24)"/><circle class="cls-3" cx="30.34" cy="30.11" r="18.52"/><path class="cls-2" d="M22.15,5.26L24,4.42l0,7.8,1.21,2.63-1.72.79L22.31,13l-5.9-5.09,1.82-.84,4.08,3.67Z" transform="translate(-1.59 -2.24)"/><path class="cls-2" d="M35.25,10.51a2.85,2.85,0,0,1-.76,2.19,4.18,4.18,0,0,1-2.92,1,4.15,4.15,0,0,1-3-.82,2.83,2.83,0,0,1-.9-2.13L27.57,6.6a2.83,2.83,0,0,1,.77-2.19,4.15,4.15,0,0,1,2.92-1,4.18,4.18,0,0,1,3,.82,2.85,2.85,0,0,1,.89,2.13Zm-5.67.07q0,1.52,1.94,1.46t1.84-1.57L33.24,6.54q0-1.52-1.94-1.46T29.46,6.66Z" transform="translate(-1.59 -2.24)"/><path class="cls-2" d="M47.09,7.51L44.2,14a2.82,2.82,0,0,1-1.59,1.6,4,4,0,0,1-3-.33,4,4,0,0,1-2.27-2A2.84,2.84,0,0,1,37.46,11l2.89-6.48,1.73,0.77-2.82,6.34q-0.62,1.4,1,2.13t2.27-.67l2.82-6.34Z" transform="translate(-1.59 -2.24)"/><path class="cls-4" d="M30.94,27.92v0a2.18,2.18,0,0,1-1.37,1.93,1.18,1.18,0,0,0-.87.38c0.14,1.42,5.09,1.45,5.27,0,0-.26-0.65-0.3-0.88-0.36a1.82,1.82,0,0,1-1.15-2v0L32,26.8l0-.55a2.56,2.56,0,0,1,.58-1.38c1.13-1.4,2.16-4.93,2.51-9.09H29.73c-0.34,4.07.08,7.55,0.95,9a2.82,2.82,0,0,1,.39,1.67l0,0.35Zm-1-9.57a3.54,3.54,0,0,0,4.26-1c0,0.35,0,.71,0,1.07-0.24,3.34-1.3,6.05-2.38,6.07S29.7,21.7,29.94,18.35Zm1,1.51a0.27,0.27,0,0,1-.25.26,0.22,0.22,0,0,1-.21-0.26,0.27,0.27,0,0,1,.25-0.26A0.22,0.22,0,0,1,30.95,19.85Zm0.12,1.41a0.14,0.14,0,0,1-.13.13,0.11,0.11,0,0,1-.11-0.13A0.14,0.14,0,0,1,31,21.13,0.11,0.11,0,0,1,31.06,21.26Zm1.25-1.07a0.24,0.24,0,0,1-.23.23,0.2,0.2,0,0,1-.19-0.23A0.24,0.24,0,0,1,32.12,20,0.2,0.2,0,0,1,32.31,20.19Zm1.22-.41a0.19,0.19,0,0,1-.18.18,0.16,0.16,0,0,1-.15-0.18,0.19,0.19,0,0,1,.18-0.18A0.16,0.16,0,0,1,33.54,19.78Zm-1.07-.48a0.17,0.17,0,0,1-.16.16,0.14,0.14,0,0,1-.13-0.16,0.17,0.17,0,0,1,.16-0.16A0.14,0.14,0,0,1,32.46,19.3ZM32.1,22a0.21,0.21,0,0,1-.19.19A0.17,0.17,0,0,1,31.75,22a0.21,0.21,0,0,1,.19-0.19A0.17,0.17,0,0,1,32.1,22Zm1-.82a0.24,0.24,0,0,1-.22.23,0.2,0.2,0,0,1-.19-0.23,0.24,0.24,0,0,1,.22-0.23A0.2,0.2,0,0,1,33.09,21.14Z" transform="translate(-1.59 -2.24)"/><path class="cls-4" d="M23.06,34.86c0.75,0.71,2.66.24,3.21-.22l-2.72-2.59C23,32.51,22.31,34.15,23.06,34.86Zm3.59-4.31-0.12-.11a0.72,0.72,0,0,0-.93-0.05l-2.09,1.71,0.58,0.55ZM28.33,33a0.53,0.53,0,0,0,0-.82L28.22,32l-2.56,2.09,0.58,0.55Zm-3.17.69,2.3-1.88a0.3,0.3,0,0,0,0-.46l-0.09-.09a0.36,0.36,0,0,0-.46,0l-2.33,1.9ZM17.22,40.3L24,34.78l-0.75-.71-6.76,5.51a0.29,0.29,0,0,0,0,.45l0.24,0.23A0.4,0.4,0,0,0,17.22,40.3Z" transform="translate(-1.59 -2.24)"/><path class="cls-4" d="M35.57,30.31A2.48,2.48,0,0,0,35.38,32c0.76,1.16,4.92,2.42,5.64,2.64l6.76,3.9,0.27-1.08-6.83-3.94h0Z" transform="translate(-1.59 -2.24)"/><text class="cls-5" transform="translate(61.69 47.01)">毎<tspan x="12" y="0">日</tspan><tspan class="cls-6" x="23.32" y="0">ち</tspan><tspan class="cls-6" x="33.85" y="0">ゃ</tspan><tspan class="cls-6" x="44.4" y="0">ん</tspan><tspan class="cls-6" x="55.32" y="0">と</tspan><tspan x="65.46" y="0">ご</tspan><tspan x="76.49" y="0">は</tspan><tspan x="88" y="0">ん</tspan></text><path class="cls-7" d="M71.46,16.27h2.42L70,24.78v3.47H67.73V24.78l-3.87-8.52h2.41l2.59,6Z" transform="translate(-1.59 -2.24)"/><path class="cls-7" d="M86,24.75a3.42,3.42,0,0,1-1,2.59,6.29,6.29,0,0,1-7.08,0,3.4,3.4,0,0,1-1-2.59v-5a3.4,3.4,0,0,1,1-2.59,6.29,6.29,0,0,1,7.08,0,3.42,3.42,0,0,1,1,2.59v5Zm-6.8-.13q0,1.82,2.27,1.82t2.27-1.82V19.91q0-1.82-2.27-1.82t-2.27,1.82v4.71Z" transform="translate(-1.59 -2.24)"/><path class="cls-7" d="M98.75,16.07v8.52a3.39,3.39,0,0,1-1,2.53,6,6,0,0,1-7,0,3.4,3.4,0,0,1-.95-2.53V16.07h2.27v8.33q0,1.84,2.16,1.84t2.16-1.84V16.07h2.27Z" transform="translate(-1.59 -2.24)"/><path class="cls-7" d="M110,28.15l-2.75-4h-2.16v4h-2.27v-12h4.91a4.34,4.34,0,0,1,3,.83,3.11,3.11,0,0,1,.86,2.42V21a2.74,2.74,0,0,1-1.8,2.9l3,4.28H110Zm-0.72-8.57a1.36,1.36,0,0,0-1.63-1.42h-2.56v4.07h2.56a1.37,1.37,0,0,0,1.63-1.46V19.58Z" transform="translate(-1.59 -2.24)"/><path class="cls-7" d="M115.34,16.16h7.35v2h-5.08v2.9h4.68v2h-4.68v3.1h5.08v2h-7.35v-12Z" transform="translate(-1.59 -2.24)"/><path class="cls-7" d="M126.2,19.46q0-3.47,4.26-3.47a13.19,13.19,0,0,1,3.26.4l-0.25,2a16.21,16.21,0,0,0-2.93-.31q-2.07,0-2.07,1.82v4.61q0,1.82,2.07,1.82a16.21,16.21,0,0,0,2.93-.31l0.25,2a13.19,13.19,0,0,1-3.26.4q-4.26,0-4.26-3.47v-5.4Z" transform="translate(-1.59 -2.24)"/><path class="cls-7" d="M139.07,28.33h-1.68v-12h1.68v12Z" transform="translate(-1.59 -2.24)"/><path class="cls-7" d="M142.71,16.16h4.68a4.32,4.32,0,0,1,2.94.83,3.11,3.11,0,0,1,.86,2.42V21q0,3.23-3.91,3.23H145v3.88h-2.27v-12Zm6.21,3.42q0-1.42-1.66-1.42H145v4.1h2.29a1.39,1.39,0,0,0,1.66-1.46V19.58Z" transform="translate(-1.59 -2.24)"/><path class="cls-7" d="M154.9,16.16h7.35v2h-5.08v2.9h4.68v2h-4.68v3.1h5.08v2H154.9v-12Z" transform="translate(-1.59 -2.24)"/><ellipse class="cls-8" cx="54.73" cy="100.68" rx="23.31" ry="23.36"/><path class="cls-9" d="M41.33,120.28q-0.33-.34.08-2.32a5.76,5.76,0,0,1,.79-2.33,1.39,1.39,0,0,1,.95.22,1.16,1.16,0,0,0,.82.06,2,2,0,0,0,.79-0.49,2.11,2.11,0,0,0,.33-0.41,1.49,1.49,0,0,0,.2-0.47,1.11,1.11,0,0,0,0-.49,1,1,0,0,0-.25-0.46,1.42,1.42,0,0,0-.29-0.22,1.26,1.26,0,0,0-.33-0.14,0.92,0.92,0,0,0-.33,0,0.48,0.48,0,0,0-.28.13l-4,3.83a0.44,0.44,0,0,0-.06.56,0.4,0.4,0,0,1,0,.49,0.28,0.28,0,0,1-.44,0l-1.95-2a0.27,0.27,0,0,1,0-.43,0.42,0.42,0,0,1,.49,0,0.47,0.47,0,0,0,.59,0l4-3.83a0.38,0.38,0,0,0,0-.47,0.38,0.38,0,0,1,0-.49,0.35,0.35,0,0,1,.36,0,3,3,0,0,1,.58.27q0.33,0.19.69,0.45l0.67,0.51,0.55,0.46L45.64,113a4.81,4.81,0,0,1,.68.88,3.18,3.18,0,0,1,.4,1,2.2,2.2,0,0,1,0,1,1.91,1.91,0,0,1-.56.91,1.66,1.66,0,0,1-.6.39,1.94,1.94,0,0,1-.63.1,3.26,3.26,0,0,1-.68-0.08L43.46,117a4.19,4.19,0,0,0-.38.9,7.55,7.55,0,0,0-.24,1.13,5.11,5.11,0,0,0,0,1.16q0.06,0.52.14,0.94a0.36,0.36,0,0,1,0,.26,0.22,0.22,0,0,1-.16.09,0.48,0.48,0,0,1-.21,0,0.46,0.46,0,0,1-.18-0.11Z" transform="translate(-1.59 -2.24)"/><path class="cls-9" d="M50.53,124.79a0.28,0.28,0,0,1-.26.11,0.9,0.9,0,0,1-.26,0L45.21,123a0.26,0.26,0,0,1-.17-0.39,0.42,0.42,0,0,1,.46-0.15,0.47,0.47,0,0,0,.52-0.31l2.19-5.58A0.45,0.45,0,0,0,48,116a0.41,0.41,0,0,1-.22-0.44,0.27,0.27,0,0,1,.39-0.18l4.55,1.74a0.54,0.54,0,0,1,.35.32,2,2,0,0,1,.09.53,1.92,1.92,0,0,1,0,.35,1.08,1.08,0,0,1-.06.29,0.22,0.22,0,0,0-.09.07l-0.09.1a0.18,0.18,0,0,1-.1,0,0.13,0.13,0,0,1-.11-0.08l-0.17-.24-0.19-.25-0.17-.23-0.11-.15a1.42,1.42,0,0,0-.44-0.32,7.63,7.63,0,0,0-.84-0.37,1.14,1.14,0,0,0-.6-0.11,0.37,0.37,0,0,0-.27.24l-0.32.82-0.16.39-0.05.14,0,0a0.31,0.31,0,0,0,0,.19,0.27,0.27,0,0,0,.08.13l0.14,0.09,0.14,0.06,0.17,0.06,0.22,0.06,0.22,0.07,0.17,0.06a1.1,1.1,0,0,1,.45.29,0.49,0.49,0,0,1-.29.75,1.3,1.3,0,0,1-.58-0.11l-0.35-.16-0.36-.16a0.81,0.81,0,0,0-.33-0.05,0.29,0.29,0,0,0-.26.22l-0.94,2.4a0.46,0.46,0,0,0,0,.35,0.66,0.66,0,0,0,.31.21l0.38,0.16,0.52,0.2,0.48,0.18,0.29,0.1a0.28,0.28,0,0,0,.29,0,4.21,4.21,0,0,0,.49-0.15l0.48-.18a0.55,0.55,0,0,1,.28-0.07,0.36,0.36,0,0,1,.18.14,0.22,0.22,0,0,1,0,.21,0.85,0.85,0,0,1-.16.22l-0.29.29-0.31.27A1.14,1.14,0,0,1,50.53,124.79Z" transform="translate(-1.59 -2.24)"/><path class="cls-9" d="M57.19,125.57a3.31,3.31,0,0,1-2.78-1.15,4.5,4.5,0,0,1-1-2.83,4.59,4.59,0,0,1,.79-2.83,3.11,3.11,0,0,1,2.62-1.34l0.33,0,0.54,0.07a3.07,3.07,0,0,0,.5,0l0.08-.07,0.16-.09,0.16-.08,0.09,0a0.94,0.94,0,0,1,.63.75,3.29,3.29,0,0,1,.29,1,0.24,0.24,0,0,1-.11.23,0.64,0.64,0,0,1-.32.08l-0.51-.43a5,5,0,0,0-.46-0.34,2.56,2.56,0,0,0-.58-0.26,2,2,0,0,0-.65-0.08,1.5,1.5,0,0,0-1.35,1.15,5.18,5.18,0,0,0-.27,2,5.36,5.36,0,0,0,.41,2.18,1.74,1.74,0,0,0,1.68,1.07,1.9,1.9,0,0,0,.56-0.1,2.57,2.57,0,0,0,.55-0.27l0.75-.48a1.3,1.3,0,0,1,.34-0.18,0.27,0.27,0,0,1,.19,0,0.4,0.4,0,0,1,.12.12,0.41,0.41,0,0,1,.06.13,0.47,0.47,0,0,1,0,.16,0.83,0.83,0,0,1-.09.25,1.15,1.15,0,0,1-.21.28,1.82,1.82,0,0,1-.33.25,5.29,5.29,0,0,1-.48.26A4.1,4.1,0,0,1,57.19,125.57Z" transform="translate(-1.59 -2.24)"/><path class="cls-9" d="M62.37,124.79a0.27,0.27,0,0,1-.39-0.2,0.41,0.41,0,0,1,.24-0.42,0.45,0.45,0,0,0,.2-0.54l-2-5.65a0.46,0.46,0,0,0-.5-0.3,0.42,0.42,0,0,1-.46-0.19,0.26,0.26,0,0,1,.18-0.39l2.64-.91a0.27,0.27,0,0,1,.38.19,0.43,0.43,0,0,1-.25.43,0.45,0.45,0,0,0-.2.54l2,5.65a0.46,0.46,0,0,0,.5.3,0.44,0.44,0,0,1,.47.18,0.27,0.27,0,0,1-.18.4Z" transform="translate(-1.59 -2.24)"/><path class="cls-9" d="M68.76,118.54l-0.24.16a1.36,1.36,0,0,1-.29.13,0.87,0.87,0,0,1-.29,0,0.29,0.29,0,0,1-.23-0.12,0.35,0.35,0,0,1-.05-0.35A1,1,0,0,1,68,118a1,1,0,0,0,.42-1,1.68,1.68,0,0,0-.19-0.54,3.19,3.19,0,0,0-.35-0.51,3.43,3.43,0,0,0-.52-0.51,2.24,2.24,0,0,0-.6-0.34,1.52,1.52,0,0,0-.61-0.1,1,1,0,0,0-.57.21,0.94,0.94,0,0,0-.35.51,0.62,0.62,0,0,0,.11.57l3.34,4.32a0.46,0.46,0,0,0,.57.13,0.42,0.42,0,0,1,.5,0,0.26,0.26,0,0,1,0,.42l-2.21,1.66a0.27,0.27,0,0,1-.42-0.07,0.4,0.4,0,0,1,.1-0.47,0.45,0.45,0,0,0,0-.58l-3.34-4.32a0.39,0.39,0,0,0-.47,0,0.4,0.4,0,0,1-.49-0.07,0.36,0.36,0,0,1,0-.37,2.51,2.51,0,0,1,.3-0.51,6.18,6.18,0,0,1,.49-0.58q0.28-.3.56-0.56l0.5-.45,0.32-.27a4.47,4.47,0,0,1,1-.57,3.6,3.6,0,0,1,1.15-.26,2.71,2.71,0,0,1,1.12.18,2.19,2.19,0,0,1,1,.74,3.38,3.38,0,0,1,.59,1.11,2.27,2.27,0,0,1,.07,1,2.33,2.33,0,0,1-.41.95A3.55,3.55,0,0,1,68.76,118.54Z" transform="translate(-1.59 -2.24)"/><path class="cls-9" d="M77.1,111.84a0.27,0.27,0,0,1,.07.27,0.88,0.88,0,0,1-.08.25l-2.54,4.4a0.27,0.27,0,0,1-.42.1A0.4,0.4,0,0,1,74,116.4a0.46,0.46,0,0,0-.23-0.55l-5.27-3a0.46,0.46,0,0,0-.58.1,0.42,0.42,0,0,1-.47.15,0.26,0.26,0,0,1-.12-0.41l2.41-4.17a0.54,0.54,0,0,1,.37-0.29,2.07,2.07,0,0,1,.54,0,2,2,0,0,1,.35.05,1.1,1.1,0,0,1,.28.1,0.22,0.22,0,0,0,.06.1l0.09,0.1a0.18,0.18,0,0,1,0,.11,0.13,0.13,0,0,1-.1.1l-0.26.13-0.28.15-0.25.13-0.17.08a1.42,1.42,0,0,0-.39.38,7.46,7.46,0,0,0-.5.77,1.11,1.11,0,0,0-.2.57,0.37,0.37,0,0,0,.2.3l0.78,0.44L70.72,112,70.85,112l0,0a0.32,0.32,0,0,0,.18,0,0.27,0.27,0,0,0,.14-0.06,0.54,0.54,0,0,0,.11-0.12l0.08-.13,0.08-.16,0.1-.2,0.1-.21,0.09-.16a1.1,1.1,0,0,1,.36-0.4,0.43,0.43,0,0,1,.46,0,0.41,0.41,0,0,1,.25.38,1.25,1.25,0,0,1-.19.55,3.42,3.42,0,0,1-.21.32,3.66,3.66,0,0,0-.21.33,0.78,0.78,0,0,0-.1.32,0.29,0.29,0,0,0,.18.28l2.27,1.27a0.48,0.48,0,0,0,.34.1,0.66,0.66,0,0,0,.26-0.28c0.05-.08.13-0.19,0.22-0.35l0.27-.47,0.25-.44,0.15-.26a0.27,0.27,0,0,0,.08-0.28,4,4,0,0,0-.08-0.5q-0.06-.27-0.11-0.5a0.52,0.52,0,0,1,0-.28,0.36,0.36,0,0,1,.17-0.16,0.23,0.23,0,0,1,.21,0,0.84,0.84,0,0,1,.2.19l0.25,0.33L77,111.59A1.12,1.12,0,0,1,77.1,111.84Z" transform="translate(-1.59 -2.24)"/><ellipse class="cls-3" cx="54.73" cy="100.5" rx="14.44" ry="14.47"/><path class="cls-9" d="M48.69,81.58l1.43-.66,0,6.09,0.95,2.05-1.34.62-0.95-2.05-4.6-4L45.63,83l3.18,2.87Z" transform="translate(-1.59 -2.24)"/><path class="cls-9" d="M58.9,85.68a2.23,2.23,0,0,1-.59,1.71,4.08,4.08,0,0,1-4.6.14,2.22,2.22,0,0,1-.7-1.67l-0.1-3.24a2.22,2.22,0,0,1,.6-1.71,4.08,4.08,0,0,1,4.6-.14,2.23,2.23,0,0,1,.7,1.67Zm-4.42.05q0,1.18,1.51,1.14t1.44-1.23l-0.09-3.07q0-1.18-1.51-1.14t-1.44,1.23Z" transform="translate(-1.59 -2.24)"/><path class="cls-9" d="M68.14,83.33L65.88,88.4a2.2,2.2,0,0,1-1.24,1.25,3.88,3.88,0,0,1-4.13-1.84,2.22,2.22,0,0,1,.11-1.76L62.88,81l1.35,0.6-2.2,5a1.42,1.42,0,0,0,2.57,1.15l2.2-5Z" transform="translate(-1.59 -2.24)"/><path class="cls-4" d="M55.55,99.28h0a1.71,1.71,0,0,1-1.07,1.51,0.92,0.92,0,0,0-.68.29c0.11,1.11,4,1.13,4.11,0,0-.21-0.51-0.23-0.68-0.28a1.42,1.42,0,0,1-.9-1.56h0l0.07-.84,0-.43a2,2,0,0,1,.45-1.08c0.89-1.09,1.68-3.85,2-7.1H54.6c-0.26,3.18.06,5.9,0.74,7a2.2,2.2,0,0,1,.3,1.3l0,0.28ZM54.76,91.8A2.76,2.76,0,0,0,58.08,91c0,0.27,0,.55,0,0.84-0.18,2.61-1,4.73-1.86,4.74S54.57,94.42,54.76,91.8ZM55.55,93a0.21,0.21,0,0,1-.2.2,0.17,0.17,0,0,1-.17-0.2,0.21,0.21,0,0,1,.2-0.2A0.17,0.17,0,0,1,55.55,93Zm0.09,1.1a0.11,0.11,0,0,1-.1.1,0.09,0.09,0,0,1-.08-0.1,0.11,0.11,0,0,1,.1-0.1A0.09,0.09,0,0,1,55.64,94.08Zm1-.84a0.19,0.19,0,0,1-.18.18,0.16,0.16,0,0,1-.15-0.18,0.19,0.19,0,0,1,.18-0.18A0.16,0.16,0,0,1,56.61,93.24Zm1-.32a0.15,0.15,0,0,1-.14.14,0.12,0.12,0,0,1-.12-0.14,0.15,0.15,0,0,1,.14-0.14A0.12,0.12,0,0,1,57.57,92.92Zm-0.83-.37a0.13,0.13,0,0,1-.12.12,0.11,0.11,0,0,1-.1-0.12,0.13,0.13,0,0,1,.12-0.12A0.11,0.11,0,0,1,56.73,92.55Zm-0.28,2.08a0.16,0.16,0,0,1-.15.15,0.13,0.13,0,0,1-.12-0.15,0.16,0.16,0,0,1,.15-0.15A0.13,0.13,0,0,1,56.45,94.62ZM57.22,94a0.19,0.19,0,0,1-.18.18A0.15,0.15,0,0,1,56.9,94a0.19,0.19,0,0,1,.18-0.18A0.15,0.15,0,0,1,57.22,94Z" transform="translate(-1.59 -2.24)"/><path class="cls-4" d="M49.4,104.7c0.59,0.56,2.07.18,2.51-.17l-2.12-2C49.35,102.87,48.81,104.15,49.4,104.7Zm2.8-3.37-0.09-.09a0.56,0.56,0,0,0-.72,0l-1.63,1.33L50.2,103Zm1.31,1.89a0.42,0.42,0,0,0,0-.64l-0.09-.09-2,1.63,0.45,0.43Zm-2.47.54,1.79-1.47a0.23,0.23,0,0,0,0-.36l-0.07-.07a0.28,0.28,0,0,0-.36,0l-1.82,1.48Zm-6.19,5.19,5.27-4.31-0.58-.56-5.27,4.31a0.23,0.23,0,0,0,0,.35l0.19,0.18A0.31,0.31,0,0,0,44.84,108.95Z" transform="translate(-1.59 -2.24)"/><path class="cls-4" d="M59.15,101.15a1.94,1.94,0,0,0-.15,1.36c0.59,0.9,3.84,1.89,4.4,2.06l5.27,3,0.21-.84-5.33-3.07h0Z" transform="translate(-1.59 -2.24)"/></svg>